<svg width="32" height="32" viewBox="0 0 800 800" xmlns="http://www.w3.org/2000/svg">
  <defs>
    <linearGradient id="blueToViolet" x1="0%" y1="0%" x2="0%" y2="100%">
      <stop offset="0%" style="stop-color:#3B9EFF;stop-opacity:1" />
      <stop offset="100%" style="stop-color:#7B68EE;stop-opacity:1" />
    </linearGradient>
    <filter id="nodeGlow">
      <feGaussianBlur stdDeviation="4" result="coloredBlur"/>
      <feMerge>
        <feMergeNode in="coloredBlur"/>
        <feMergeNode in="SourceGraphic"/>
      </feMerge>
    </filter>
  </defs>

  <!-- Black background -->
  <rect width="800" height="800" fill="#000000"/>

  <!-- S Letter (Left side) -->
  <!-- Top section of S -->
  <line x1="180" y1="350" x2="290" y2="235" stroke="url(#blueToViolet)" stroke-width="8" stroke-linecap="round"/>
  <line x1="290" y1="235" x2="425" y2="280" stroke="url(#blueToViolet)" stroke-width="8" stroke-linecap="round"/>

  <!-- Middle curve of S -->
  <line x1="180" y1="350" x2="380" y2="435" stroke="url(#blueToViolet)" stroke-width="8" stroke-linecap="round"/>
  <line x1="380" y1="435" x2="425" y2="280" stroke="url(#blueToViolet)" stroke-width="8" stroke-linecap="round"/>

  <!-- Bottom section of S -->
  <line x1="180" y1="545" x2="310" y2="590" stroke="url(#blueToViolet)" stroke-width="8" stroke-linecap="round"/>
  <line x1="310" y1="590" x2="380" y2="435" stroke="url(#blueToViolet)" stroke-width="8" stroke-linecap="round"/>
  <line x1="180" y1="545" x2="145" y2="700" stroke="url(#blueToViolet)" stroke-width="8" stroke-linecap="round"/>
  <line x1="145" y1="700" x2="275" y2="745" stroke="url(#blueToViolet)" stroke-width="8" stroke-linecap="round"/>
  <line x1="275" y1="745" x2="310" y2="590" stroke="url(#blueToViolet)" stroke-width="8" stroke-linecap="round"/>

  <!-- S Letter Nodes -->
  <circle cx="290" cy="235" r="20" fill="#3B9EFF" filter="url(#nodeGlow)"/>
  <circle cx="425" cy="280" r="20" fill="#3B9EFF" filter="url(#nodeGlow)"/>
  <circle cx="180" cy="350" r="20" fill="#5A8EE8" filter="url(#nodeGlow)"/>
  <circle cx="380" cy="435" r="20" fill="#6682E0" filter="url(#nodeGlow)"/>
  <circle cx="180" cy="545" r="20" fill="#7277DA" filter="url(#nodeGlow)"/>
  <circle cx="310" cy="590" r="20" fill="#7B68EE" filter="url(#nodeGlow)"/>
  <circle cx="145" cy="700" r="20" fill="#7B68EE" filter="url(#nodeGlow)"/>
  <circle cx="275" cy="745" r="20" fill="#7B68EE" filter="url(#nodeGlow)"/>

  <!-- P Letter (Right side) -->
  <!-- Vertical stem -->
  <line x1="565" y1="205" x2="565" y2="400" stroke="url(#blueToViolet)" stroke-width="8" stroke-linecap="round"/>
  <line x1="565" y1="400" x2="565" y2="595" stroke="url(#blueToViolet)" stroke-width="8" stroke-linecap="round"/>
  <line x1="565" y1="595" x2="565" y2="755" stroke="url(#blueToViolet)" stroke-width="8" stroke-linecap="round"/>

  <!-- Bowl of P (hexagonal shape) -->
  <!-- Top horizontal -->
  <line x1="565" y1="205" x2="735" y2="205" stroke="url(#blueToViolet)" stroke-width="8" stroke-linecap="round"/>
  <!-- Top-right diagonal -->
  <line x1="735" y1="205" x2="795" y2="300" stroke="url(#blueToViolet)" stroke-width="8" stroke-linecap="round"/>
  <!-- Bottom-right diagonal -->
  <line x1="795" y1="300" x2="735" y2="400" stroke="url(#blueToViolet)" stroke-width="8" stroke-linecap="round"/>
  <!-- Bottom horizontal -->
  <line x1="735" y1="400" x2="565" y2="400" stroke="url(#blueToViolet)" stroke-width="8" stroke-linecap="round"/>

  <!-- P Letter Nodes -->
  <circle cx="565" cy="205" r="20" fill="#3B9EFF" filter="url(#nodeGlow)"/>
  <circle cx="735" cy="205" r="20" fill="#3B9EFF" filter="url(#nodeGlow)"/>
  <circle cx="795" cy="300" r="20" fill="#4F92E5" filter="url(#nodeGlow)"/>
  <circle cx="735" cy="400" r="20" fill="#5A8EE8" filter="url(#nodeGlow)"/>
  <circle cx="565" cy="400" r="20" fill="#5A8EE8" filter="url(#nodeGlow)"/>
  <circle cx="565" cy="595" r="20" fill="#7277DA" filter="url(#nodeGlow)"/>
  <circle cx="565" cy="755" r="20" fill="#7B68EE" filter="url(#nodeGlow)"/>
</svg>
